# xmcd CD database file
#
# Track frame offsets:
#	150
#	26831
#	45712
#	67593
#	98884
#	125471
#
# Disc length: 1864 seconds
#
# Revision: 0
# Processed by: cddbd v1.5.2PL0 Copyright (c) Steve Scherf et al.
# Submitted via: CDex 1.51
#
DISCID=47074606
DTITLE=Rob McConnell and The Boss Brass - Again 1
DYEAR=1978
DGENRE=Jazz
TTITLE0=Confirmation
TTITLE1=Everytime we say Goodbye
TTITLE2=The 4.679.385th Blues in B
TTITLE3=A Time for Love
TTITLE4=Take the A Train
TTITLE5=My Ship
EXTD=YEAR: 1978
EXTT0=
EXTT1=
EXTT2=
EXTT3=
EXTT4=
EXTT5=
PLAYORDER=
